<!DOCTYPE svg PUBLIC "-//W3C//DTD SVG 20010904//EN" "http://www.w3.org/TR/2001/REC-SVG-20010904/DTD/svg10.dtd">
<svg version="1.0" xmlns="http://www.w3.org/2000/svg" width="1024px" height="1024px" viewBox="0 0 10240 10240" preserveAspectRatio="xMidYMid meet">
<g id="layer101" fill="#6f8adb" stroke="none">
 <path d="M0 5120 l0 -5120 5120 0 5120 0 0 5120 0 5120 -5120 0 -5120 0 0 -5120z"/>
 </g>
<g id="layer102" fill="#ffffff" stroke="none">
 <path d="M6131 8808 c1 -23 0 -451 -2 -950 -3 -649 -7 -910 -15 -918 -8 -8 -327 -11 -1155 -11 -2517 1 -2762 1 -2766 -3 -7 -7 -6 -2818 1 -2866 7 -49 24 -107 37 -130 5 -8 12 -22 15 -30 3 -8 12 -27 20 -42 8 -14 14 -32 14 -39 0 -7 17 -35 38 -63 20 -28 44 -63 51 -79 29 -56 259 -297 284 -297 5 0 28 -16 51 -35 24 -19 48 -35 53 -35 5 0 18 -9 28 -20 10 -11 23 -20 29 -20 6 0 22 -9 36 -20 14 -11 32 -20 41 -20 9 0 22 -7 29 -15 7 -8 19 -15 27 -15 8 0 28 -9 44 -21 16 -11 29 -18 29 -15 0 3 17 -3 37 -14 37 -20 57 -20 814 -20 867 0 789 7 789 -72 0 -39 -39 -118 -77 -156 -8 -8 -19 -26 -24 -38 -4 -13 -37 -68 -73 -121 -35 -54 -70 -115 -77 -135 -7 -21 -29 -53 -49 -73 l-35 -34 -50 24 c-73 35 -148 48 -250 42 -161 -9 -298 -88 -383 -222 -14 -22 -32 -45 -41 -52 -9 -6 -13 -15 -9 -19 4 -4 3 -13 -3 -20 -6 -7 -13 -64 -16 -126 -5 -90 -2 -126 11 -173 43 -147 150 -265 297 -327 46 -19 72 -22 179 -22 107 0 133 3 179 22 144 61 253 179 295 321 21 71 20 196 -1 277 -17 62 -16 64 3 86 11 13 32 49 48 80 16 32 38 65 48 74 10 10 18 21 18 27 0 5 12 26 28 46 27 36 44 64 69 111 7 14 28 48 47 75 19 28 44 70 56 95 75 154 132 258 151 276 28 25 163 30 208 6 19 -9 38 -24 42 -32 28 -54 100 -177 143 -245 70 -110 75 -118 83 -135 4 -8 9 -17 12 -20 14 -11 59 -87 66 -110 4 -14 18 -39 31 -56 13 -17 24 -38 24 -47 0 -9 9 -23 21 -31 23 -16 89 -119 89 -140 0 -6 5 -17 11 -23 8 -8 8 -22 0 -49 -16 -57 -13 -192 5 -255 42 -142 151 -260 295 -321 46 -19 72 -22 179 -22 107 0 133 3 179 22 195 82 311 252 311 457 0 205 -116 375 -311 457 -46 19 -72 22 -179 22 -114 1 -131 -2 -189 -27 -94 -40 -124 -37 -162 16 -17 23 -45 69 -61 102 -29 56 -46 85 -163 264 -54 83 -61 142 -22 179 l23 22 1195 2 c1016 3 1199 5 1213 17 46 38 46 36 46 880 0 438 0 1242 1 1786 0 1057 0 1064 -49 1172 -14 33 -236 253 -957 950 -516 500 -942 910 -947 911 -5 2 -8 -16 -7 -40z m-1912 -3617 c143 -58 253 -178 295 -320 9 -30 16 -91 16 -136 0 -205 -116 -375 -311 -457 -46 -19 -72 -22 -179 -22 -107 0 -133 3 -179 22 -144 61 -253 179 -295 321 -20 70 -21 202 0 272 47 162 188 297 354 339 64 16 239 5 299 -19z m1521 19 c142 -22 280 -121 349 -249 157 -296 -26 -653 -361 -702 -264 -38 -513 148 -549 410 -34 245 132 483 374 536 77 17 105 17 187 5z"/>
 </g>

</svg>