<!DOCTYPE svg PUBLIC "-//W3C//DTD SVG 20010904//EN" "http://www.w3.org/TR/2001/REC-SVG-20010904/DTD/svg10.dtd">
<svg version="1.0" xmlns="http://www.w3.org/2000/svg" width="240px" height="240px" viewBox="0 0 2400 2400" preserveAspectRatio="xMidYMid meet">
<g id="layer101" fill="#a10018" stroke="none">
 <path d="M214 2286 c-45 -45 -47 -95 -5 -137 25 -24 37 -29 80 -29 l51 0 0 -488 0 -488 -30 -22 c-22 -17 -30 -31 -30 -54 0 -25 16 -47 90 -122 l90 -92 0 -185 c0 -131 4 -189 12 -197 7 -7 45 -12 99 -12 102 0 99 -3 99 108 l0 76 248 -247 c228 -227 251 -247 282 -247 32 0 65 31 477 443 400 399 443 445 443 474 0 24 -8 38 -30 55 l-30 22 0 488 0 488 51 0 c43 0 55 5 80 29 42 42 40 92 -5 137 l-34 34 -952 0 -952 0 -34 -34z"/>
 </g>
<g id="layer102" fill="#5c9238" stroke="none">
 <path d="M214 2286 c-45 -45 -47 -95 -5 -137 25 -24 37 -29 80 -29 l51 0 0 -488 0 -488 -30 -22 c-65 -49 -74 -38 413 -527 414 -417 444 -445 477 -445 32 0 64 29 477 443 400 399 443 445 443 474 0 24 -8 38 -30 55 l-30 22 0 488 0 488 51 0 c43 0 55 5 80 29 42 42 40 92 -5 137 l-34 34 -952 0 -952 0 -34 -34z"/>
 </g>
<g id="layer103" fill="#667680" stroke="none">
 <path d="M340 1632 l0 -488 -30 -22 c-65 -49 -74 -38 413 -527 414 -417 444 -445 477 -445 32 0 64 29 477 443 400 399 443 445 443 474 0 24 -8 38 -30 55 l-30 22 0 488 0 488 -860 0 -860 0 0 -488z"/>
 </g>
<g id="layer104" fill="#c2694e" stroke="none">
 <path d="M340 1630 l0 -490 23 -9 c12 -5 202 -190 422 -410 220 -221 407 -401 415 -401 8 0 87 72 175 160 l160 160 -199 199 c-176 177 -199 203 -199 232 0 38 24 59 67 59 25 0 59 -29 228 -197 l198 -198 198 196 c108 108 205 199 215 202 16 6 17 39 17 497 l0 490 -860 0 -860 0 0 -490z"/>
 </g>
<g id="layer105" fill="#55adef" stroke="none">
 <path d="M340 1630 l0 -490 23 -9 c12 -5 202 -190 422 -410 220 -221 407 -401 415 -401 8 0 87 72 175 160 l160 160 -199 199 c-176 177 -199 203 -199 232 0 38 24 59 67 59 25 0 59 -29 228 -197 l198 -198 198 196 c108 108 205 199 215 202 16 6 17 39 17 497 l0 490 -560 0 -560 0 -2 -196 -3 -195 -128 0 -128 0 -2 193 -2 193 -167 3 -168 2 0 -490z"/>
 </g>
<g id="layer106" fill="#ffcf54" stroke="none">
 <path d="M340 1630 l0 -490 23 -9 c12 -5 202 -190 422 -410 220 -221 407 -401 415 -401 8 0 87 72 175 160 l160 160 -199 199 c-176 177 -199 203 -199 232 0 38 24 59 67 59 25 0 59 -29 228 -197 l198 -198 198 196 c108 108 205 199 215 202 16 6 17 39 17 497 l0 490 -560 0 -560 0 -2 -196 -3 -195 -128 0 -128 0 -2 193 -2 193 -167 3 -168 2 0 -490z m1418 228 l-3 -133 -127 -3 -128 -3 0 136 0 135 130 0 131 0 -3 -132z m-823 -593 l0 -130 -130 0 -130 0 -3 119 c-1 66 0 126 2 133 4 11 34 13 133 11 l128 -3 0 -130z m820 0 l0 -130 -127 -3 -128 -3 0 136 0 136 128 -3 127 -3 0 -130z"/>
 </g>
<g id="layer107" fill="#ffe9b7" stroke="none">
 <path d="M340 1630 l0 -490 23 -9 c12 -5 202 -190 422 -410 220 -221 407 -401 415 -401 8 0 87 72 175 160 l160 160 -196 198 c-108 108 -199 205 -202 215 -10 28 10 66 38 73 l25 6 0 494 0 494 -130 0 -130 0 -2 -196 -3 -195 -128 0 -128 0 -2 193 -2 193 -167 3 -168 2 0 -490z m595 -365 l0 -130 -130 0 -130 0 -3 119 c-1 66 0 126 2 133 4 11 34 13 133 11 l128 -3 0 -130z"/>
 <path d="M1270 1607 l0 -512 180 -180 180 -180 198 196 c108 108 205 199 215 202 16 6 17 39 17 497 l0 490 -395 0 -395 0 0 -513z m488 251 l-3 -133 -127 -3 -128 -3 0 136 0 135 130 0 131 0 -3 -132z m-3 -593 l0 -130 -127 -3 -128 -3 0 136 0 136 128 -3 127 -3 0 -130z"/>
 </g>

</svg>