<!DOCTYPE svg PUBLIC "-//W3C//DTD SVG 20010904//EN" "http://www.w3.org/TR/2001/REC-SVG-20010904/DTD/svg10.dtd">
<svg version="1.0" xmlns="http://www.w3.org/2000/svg" width="240px" height="240px" viewBox="0 0 2400 2400" preserveAspectRatio="xMidYMid meet">
<g id="layer101" fill="#652113" stroke="none">
 <path d="M1180 2383 c-8 -4 -211 -161 -451 -350 -333 -261 -440 -351 -450 -375 -10 -25 -14 -137 -17 -478 -2 -411 -1 -447 15 -477 16 -29 109 -105 692 -568 63 -50 130 -100 150 -112 51 -32 106 -30 162 6 99 65 835 648 846 671 10 19 13 125 11 475 -3 390 -5 455 -19 486 -16 34 -74 82 -769 626 -117 91 -143 106 -170 96z"/>
 </g>
<g id="layer102" fill="#c1694f" stroke="none">
 <path d="M1172 2380 c-12 -5 -27 -21 -32 -35 -6 -16 -10 -197 -11 -448 l0 -422 -420 -335 c-234 -186 -427 -347 -435 -363 -31 -58 -17 -74 293 -321 472 -377 520 -415 555 -436 48 -29 105 -26 159 9 99 65 835 648 846 671 10 19 13 125 11 475 -3 390 -5 455 -19 486 -16 34 -74 82 -769 626 -124 97 -143 106 -178 93z"/>
 </g>
<g id="layer103" fill="#99aab5" stroke="none">
 <path d="M1172 2380 c-12 -5 -27 -21 -32 -35 -6 -16 -10 -197 -11 -448 l0 -422 -420 -335 c-234 -186 -427 -347 -435 -363 -31 -58 -17 -74 293 -321 472 -377 520 -415 555 -436 42 -25 104 -26 144 -1 36 22 797 612 836 649 38 35 45 75 19 111 -22 30 -238 207 -250 204 -3 -1 -5 74 -3 166 4 219 6 215 -140 324 -62 47 -122 87 -133 91 -48 14 -65 -31 -65 -177 0 -62 -5 -119 -11 -127 -8 -13 -9 -13 -7 1 2 11 -39 50 -117 113 l-120 96 -5 440 c-4 373 -7 441 -20 454 -21 20 -51 26 -78 16z"/>
 </g>
<g id="layer104" fill="#d99e82" stroke="none">
 <path d="M1172 2380 c-12 -5 -27 -21 -32 -35 -6 -16 -10 -197 -11 -448 l0 -422 -420 -335 c-234 -186 -427 -347 -435 -363 -31 -58 -17 -74 293 -321 472 -377 520 -415 555 -436 42 -25 104 -26 144 -1 36 22 797 612 836 649 38 35 45 75 19 111 -22 30 -238 207 -250 204 -3 -1 -5 71 -3 160 4 204 -1 223 -76 282 l-57 45 -5 -181 -5 -181 -100 81 c-71 58 -101 77 -107 68 -6 -8 -8 -7 -6 4 2 11 -39 50 -117 113 l-120 96 -5 440 c-4 373 -7 441 -20 454 -21 20 -51 26 -78 16z"/>
 </g>
<g id="layer105" fill="#d4dde3" stroke="none">
 <path d="M1728 1289 l-3 -182 -93 76 -92 76 -495 -396 -494 -396 154 -123 155 -124 133 102 c628 484 848 656 865 677 10 12 12 57 10 183 -3 189 -4 191 -90 255 l-48 35 -2 -183z"/>
 </g>

</svg>